<svg width="287" height="276" xmlns="http://www.w3.org/2000/svg">
 <!-- Created with SVG Editor - http://github.com/mzalive/SVG Editor/ -->
 <g>
  <title>background</title>
  <rect fill="none" id="canvas_background" height="278" width="289" y="-1" x="-1"/>
  <g display="none" overflow="visible" y="0" x="0" height="100%" width="100%" id="canvasGrid">
   <rect fill="url(#gridpattern)" stroke-width="0" y="0" x="0" height="100%" width="100%"/>
  </g>
 </g>
 <g>
  <title>Layer 1</title>
  <path id="svg_1" d="m0.750007,138.249984l0,0c0,-75.939136 63.799429,-137.499982 142.499998,-137.499982l0,0c37.793333,0 74.038781,14.486555 100.762695,40.272804c26.723943,25.786258 41.737302,60.759904 41.737302,97.227179l0,0c0,75.939127 -63.799429,137.499982 -142.499998,137.499982l0,0c-78.700559,0 -142.499998,-61.560855 -142.499998,-137.499982zm71.249999,0l0,0c0,37.969559 31.899734,68.749991 71.249999,68.749991c39.350294,0 71.249999,-30.780432 71.249999,-68.749991c0,-37.969559 -31.899724,-68.749991 -71.249999,-68.749991l0,0c-39.350265,0 -71.249999,30.780442 -71.249999,68.749991z" stroke-width="1.5" stroke="#000" fill="#fff"/>
  <path stroke="#000" id="svg_2" d="m90.249993,138.780011l0,0c0,-28.994949 23.728912,-52.500004 53.000001,-52.500004l0,0c14.056468,0 27.537232,5.531231 37.476653,15.376892c9.939432,9.845664 15.523348,23.199241 15.523348,37.123112l0,0c0,28.994945 -23.728912,52.500004 -53.000001,52.500004l0,0c-29.271086,0 -53.000001,-23.505059 -53.000001,-52.500004zm26.500001,0l0,0c0,14.497471 11.864463,26.250002 26.500001,26.250002c14.635548,0 26.500001,-11.752531 26.500001,-26.250002c0,-14.497471 -11.864459,-26.250002 -26.500001,-26.250002l0,0c-14.635538,0 -26.500001,11.752535 -26.500001,26.250002z" fill-opacity="null" stroke-opacity="null" stroke-width="1.5" fill="#fff"/>
 </g>
</svg>